<svg id="visual" viewBox="0 0 900 600" width="900" height="600" xmlns="http://www.w3.org/2000/svg" xmlns:xlink="http://www.w3.org/1999/xlink" version="1.1"><g stroke-width="1" stroke-linejoin="bevel"><path d="M496.9 277L523.9 193L483.9 239Z" fill="#d9d9d9" stroke="#d9d9d9"></path><path d="M496.9 277L577.7 276L523.9 193Z" fill="#e7e7e7" stroke="#e7e7e7"></path><path d="M573.7 192L529.7 179L523.9 193Z" fill="#ffffff" stroke="#ffffff"></path><path d="M368.1 184L370.1 228L483.9 239Z" fill="#fafafa" stroke="#fafafa"></path><path d="M577.7 276L573.7 192L523.9 193Z" fill="#f5f5f5" stroke="#f5f5f5"></path><path d="M577.7 276L620.5 206L573.7 192Z" fill="#ffffff" stroke="#ffffff"></path><path d="M577.7 276L669.5 253L620.5 206Z" fill="#f1f1f1" stroke="#f1f1f1"></path><path d="M567.7 413L642.5 351L577.7 276Z" fill="#f5f5f5" stroke="#f5f5f5"></path><path d="M577.7 276L642.5 351L669.5 253Z" fill="#ffffff" stroke="#ffffff"></path><path d="M370.1 255L446.9 382L496.9 277Z" fill="#dedede" stroke="#dedede"></path><path d="M496.9 277L567.7 413L577.7 276Z" fill="#ffffff" stroke="#ffffff"></path><path d="M370.1 228L370.1 255L483.9 239Z" fill="#ececec" stroke="#ececec"></path><path d="M483.9 239L370.1 255L496.9 277Z" fill="#e2e2e2" stroke="#e2e2e2"></path><path d="M368.1 184L483.9 239L523.9 193Z" fill="#dedede" stroke="#dedede"></path><path d="M669.5 253L646.5 120L620.5 206Z" fill="#dedede" stroke="#dedede"></path><path d="M620.5 206L646.5 120L573.7 192Z" fill="#fafafa" stroke="#fafafa"></path><path d="M573.7 192L575.7 65L529.7 179Z" fill="#ececec" stroke="#ececec"></path><path d="M384.1 113L368.1 184L523.9 193Z" fill="#ffffff" stroke="#ffffff"></path><path d="M446.9 382L567.7 413L496.9 277Z" fill="#e7e7e7" stroke="#e7e7e7"></path><path d="M384.1 113L523.9 193L529.7 179Z" fill="#ffffff" stroke="#ffffff"></path><path d="M338.3 336L343.3 345L370.1 255Z" fill="#f1f1f1" stroke="#f1f1f1"></path><path d="M646.5 120L575.7 65L573.7 192Z" fill="#d9d9d9" stroke="#d9d9d9"></path><path d="M471.9 39L384.1 113L529.7 179Z" fill="#ffffff" stroke="#ffffff"></path><path d="M642.5 351L735.4 262L669.5 253Z" fill="#dedede" stroke="#dedede"></path><path d="M669.5 253L757.4 229L646.5 120Z" fill="#fafafa" stroke="#fafafa"></path><path d="M343.3 345L426.1 418L446.9 382Z" fill="#fafafa" stroke="#fafafa"></path><path d="M446.9 382L447.1 443L567.7 413Z" fill="#dedede" stroke="#dedede"></path><path d="M575.7 65L471.9 39L529.7 179Z" fill="#f1f1f1" stroke="#f1f1f1"></path><path d="M338.3 336L370.1 255L282.5 259Z" fill="#e2e2e2" stroke="#e2e2e2"></path><path d="M370.1 255L343.3 345L446.9 382Z" fill="#f1f1f1" stroke="#f1f1f1"></path><path d="M311.3 233L370.1 255L370.1 228Z" fill="#e2e2e2" stroke="#e2e2e2"></path><path d="M443.1 525L447.1 443L426.1 418Z" fill="#ececec" stroke="#ececec"></path><path d="M426.1 418L447.1 443L446.9 382Z" fill="#ffffff" stroke="#ffffff"></path><path d="M384.1 113L322.3 186L368.1 184Z" fill="#e2e2e2" stroke="#e2e2e2"></path><path d="M368.1 184L322.3 186L370.1 228Z" fill="#f5f5f5" stroke="#f5f5f5"></path><path d="M735.4 262L757.4 229L669.5 253Z" fill="#f1f1f1" stroke="#f1f1f1"></path><path d="M322.3 186L311.3 233L370.1 228Z" fill="#f1f1f1" stroke="#f1f1f1"></path><path d="M476.9 476L559.7 466L567.7 413Z" fill="#e2e2e2" stroke="#e2e2e2"></path><path d="M567.7 413L631.5 461L642.5 351Z" fill="#dedede" stroke="#dedede"></path><path d="M793.2 402L814.2 265L735.4 262Z" fill="#ffffff" stroke="#ffffff"></path><path d="M559.7 466L631.5 461L567.7 413Z" fill="#fafafa" stroke="#fafafa"></path><path d="M735.4 262L814.2 265L757.4 229Z" fill="#d9d9d9" stroke="#d9d9d9"></path><path d="M443.1 525L476.9 476L447.1 443Z" fill="#dedede" stroke="#dedede"></path><path d="M447.1 443L476.9 476L567.7 413Z" fill="#ffffff" stroke="#ffffff"></path><path d="M559.7 466L608.7 523L631.5 461Z" fill="#d9d9d9" stroke="#d9d9d9"></path><path d="M575.7 65L501.9 0L471.9 39Z" fill="#e2e2e2" stroke="#e2e2e2"></path><path d="M471.9 39L412.1 0L384.1 113Z" fill="#d0d0d0" stroke="#d0d0d0"></path><path d="M598.7 0L501.9 0L575.7 65Z" fill="#ffffff" stroke="#ffffff"></path><path d="M759.4 101L682.5 42L646.5 120Z" fill="#e2e2e2" stroke="#e2e2e2"></path><path d="M646.5 120L682.5 42L575.7 65Z" fill="#e2e2e2" stroke="#e2e2e2"></path><path d="M622.5 0L598.7 0L575.7 65Z" fill="#e2e2e2" stroke="#e2e2e2"></path><path d="M226.5 389L292.3 451L343.3 345Z" fill="#d9d9d9" stroke="#d9d9d9"></path><path d="M311.3 233L282.5 259L370.1 255Z" fill="#f5f5f5" stroke="#f5f5f5"></path><path d="M200.5 184L282.5 259L311.3 233Z" fill="#d0d0d0" stroke="#d0d0d0"></path><path d="M206.6 289L278.5 265L200.5 184Z" fill="#d5d5d5" stroke="#d5d5d5"></path><path d="M282.5 259L278.5 265L338.3 336Z" fill="#e2e2e2" stroke="#e2e2e2"></path><path d="M682.5 42L622.5 0L575.7 65Z" fill="#d5d5d5" stroke="#d5d5d5"></path><path d="M757.4 229L769.4 119L646.5 120Z" fill="#ececec" stroke="#ececec"></path><path d="M769.4 119L759.4 101L646.5 120Z" fill="#f1f1f1" stroke="#f1f1f1"></path><path d="M501.9 0L412.1 0L471.9 39Z" fill="#f1f1f1" stroke="#f1f1f1"></path><path d="M384.1 113L342.3 39L322.3 186Z" fill="#f1f1f1" stroke="#f1f1f1"></path><path d="M200.5 184L278.5 265L282.5 259Z" fill="#f1f1f1" stroke="#f1f1f1"></path><path d="M769.4 412L735.4 262L642.5 351Z" fill="#e7e7e7" stroke="#e7e7e7"></path><path d="M757.4 229L839.2 121L769.4 119Z" fill="#dedede" stroke="#dedede"></path><path d="M412.1 0L342.3 39L384.1 113Z" fill="#dedede" stroke="#dedede"></path><path d="M631.5 461L748.4 429L642.5 351Z" fill="#e7e7e7" stroke="#e7e7e7"></path><path d="M748.4 429L769.4 412L642.5 351Z" fill="#d9d9d9" stroke="#d9d9d9"></path><path d="M468.9 539L608.7 523L559.7 466Z" fill="#ececec" stroke="#ececec"></path><path d="M631.5 461L678.5 515L748.4 429Z" fill="#ffffff" stroke="#ffffff"></path><path d="M341.3 560L443.1 525L426.1 418Z" fill="#d9d9d9" stroke="#d9d9d9"></path><path d="M476.9 476L468.9 539L559.7 466Z" fill="#e2e2e2" stroke="#e2e2e2"></path><path d="M292.3 451L426.1 418L343.3 345Z" fill="#f1f1f1" stroke="#f1f1f1"></path><path d="M900 293L831.2 256L814.2 265Z" fill="#dedede" stroke="#dedede"></path><path d="M814.2 265L831.2 256L757.4 229Z" fill="#ececec" stroke="#ececec"></path><path d="M443.1 525L468.9 539L476.9 476Z" fill="#ffffff" stroke="#ffffff"></path><path d="M835.2 414L793.2 402L769.4 412Z" fill="#f5f5f5" stroke="#f5f5f5"></path><path d="M769.4 412L793.2 402L735.4 262Z" fill="#dedede" stroke="#dedede"></path><path d="M835.2 414L769.4 412L761.4 526Z" fill="#d9d9d9" stroke="#d9d9d9"></path><path d="M608.7 523L678.5 515L631.5 461Z" fill="#fafafa" stroke="#fafafa"></path><path d="M226.5 389L343.3 345L338.3 336Z" fill="#e2e2e2" stroke="#e2e2e2"></path><path d="M441.1 600L469.9 600L468.9 539Z" fill="#e7e7e7" stroke="#e7e7e7"></path><path d="M831.2 256L839.2 121L757.4 229Z" fill="#ececec" stroke="#ececec"></path><path d="M769.4 119L818.2 42L759.4 101Z" fill="#fafafa" stroke="#fafafa"></path><path d="M759.4 101L778.4 0L682.5 42Z" fill="#d9d9d9" stroke="#d9d9d9"></path><path d="M682.5 42L778.4 0L622.5 0Z" fill="#ececec" stroke="#ececec"></path><path d="M293.3 0L283.5 31L342.3 39Z" fill="#e7e7e7" stroke="#e7e7e7"></path><path d="M342.3 39L283.5 31L322.3 186Z" fill="#d5d5d5" stroke="#d5d5d5"></path><path d="M200.5 184L311.3 233L322.3 186Z" fill="#d5d5d5" stroke="#d5d5d5"></path><path d="M278.5 265L226.5 389L338.3 336Z" fill="#f5f5f5" stroke="#f5f5f5"></path><path d="M283.5 31L200.5 184L322.3 186Z" fill="#d9d9d9" stroke="#d9d9d9"></path><path d="M195.6 328L226.5 389L278.5 265Z" fill="#f1f1f1" stroke="#f1f1f1"></path><path d="M412.1 0L293.3 0L342.3 39Z" fill="#e2e2e2" stroke="#e2e2e2"></path><path d="M131.6 35L148.6 163L200.5 184Z" fill="#f5f5f5" stroke="#f5f5f5"></path><path d="M818.2 42L778.4 0L759.4 101Z" fill="#d0d0d0" stroke="#d0d0d0"></path><path d="M761.4 526L769.4 412L748.4 429Z" fill="#e7e7e7" stroke="#e7e7e7"></path><path d="M793.2 402L900 354L814.2 265Z" fill="#ececec" stroke="#ececec"></path><path d="M831.2 256L900 185L839.2 121Z" fill="#ececec" stroke="#ececec"></path><path d="M839.2 121L818.2 42L769.4 119Z" fill="#e2e2e2" stroke="#e2e2e2"></path><path d="M134.6 247L195.6 328L206.6 289Z" fill="#e7e7e7" stroke="#e7e7e7"></path><path d="M206.6 289L195.6 328L278.5 265Z" fill="#d5d5d5" stroke="#d5d5d5"></path><path d="M293.3 0L282.5 0L283.5 31Z" fill="#d9d9d9" stroke="#d9d9d9"></path><path d="M818.2 42L787.2 0L778.4 0Z" fill="#ececec" stroke="#ececec"></path><path d="M608.7 523L676.5 600L678.5 515Z" fill="#fafafa" stroke="#fafafa"></path><path d="M678.5 515L761.4 526L748.4 429Z" fill="#d9d9d9" stroke="#d9d9d9"></path><path d="M468.9 539L586.7 600L608.7 523Z" fill="#fafafa" stroke="#fafafa"></path><path d="M469.9 600L586.7 600L468.9 539Z" fill="#e2e2e2" stroke="#e2e2e2"></path><path d="M676.5 600L761.4 526L678.5 515Z" fill="#dedede" stroke="#dedede"></path><path d="M441.1 600L468.9 539L443.1 525Z" fill="#ececec" stroke="#ececec"></path><path d="M900 354L900 293L814.2 265Z" fill="#ffffff" stroke="#ffffff"></path><path d="M839.2 121L900 64L818.2 42Z" fill="#e2e2e2" stroke="#e2e2e2"></path><path d="M341.3 560L441.1 600L443.1 525Z" fill="#fafafa" stroke="#fafafa"></path><path d="M341.3 560L426.1 418L292.3 451Z" fill="#f5f5f5" stroke="#f5f5f5"></path><path d="M900 293L900 185L831.2 256Z" fill="#e7e7e7" stroke="#e7e7e7"></path><path d="M229.5 495L341.3 560L292.3 451Z" fill="#f5f5f5" stroke="#f5f5f5"></path><path d="M900 428L900 354L835.2 414Z" fill="#d9d9d9" stroke="#d9d9d9"></path><path d="M835.2 414L900 354L793.2 402Z" fill="#e7e7e7" stroke="#e7e7e7"></path><path d="M900 185L900 124L839.2 121Z" fill="#dedede" stroke="#dedede"></path><path d="M818.2 42L900 0L787.2 0Z" fill="#dedede" stroke="#dedede"></path><path d="M586.7 600L676.5 600L608.7 523Z" fill="#e7e7e7" stroke="#e7e7e7"></path><path d="M131.6 35L200.5 184L283.5 31Z" fill="#f5f5f5" stroke="#f5f5f5"></path><path d="M200.5 184L134.6 247L206.6 289Z" fill="#f5f5f5" stroke="#f5f5f5"></path><path d="M226.5 389L229.5 495L292.3 451Z" fill="#d0d0d0" stroke="#d0d0d0"></path><path d="M197.6 515L229.5 495L117.6 481Z" fill="#f5f5f5" stroke="#f5f5f5"></path><path d="M229.5 495L226.5 389L118.8 415Z" fill="#d5d5d5" stroke="#d5d5d5"></path><path d="M148.6 163L134.6 247L200.5 184Z" fill="#e7e7e7" stroke="#e7e7e7"></path><path d="M900 124L900 64L839.2 121Z" fill="#ececec" stroke="#ececec"></path><path d="M900 534L900 428L835.2 414Z" fill="#d5d5d5" stroke="#d5d5d5"></path><path d="M819.2 552L835.2 414L761.4 526Z" fill="#f5f5f5" stroke="#f5f5f5"></path><path d="M777.2 600L819.2 552L761.4 526Z" fill="#e2e2e2" stroke="#e2e2e2"></path><path d="M676.5 600L758.4 600L761.4 526Z" fill="#ffffff" stroke="#ffffff"></path><path d="M229.5 495L304.3 600L341.3 560Z" fill="#e7e7e7" stroke="#e7e7e7"></path><path d="M341.3 560L304.3 600L441.1 600Z" fill="#d9d9d9" stroke="#d9d9d9"></path><path d="M758.4 600L777.2 600L761.4 526Z" fill="#dedede" stroke="#dedede"></path><path d="M118.8 415L226.5 389L195.6 328Z" fill="#d5d5d5" stroke="#d5d5d5"></path><path d="M229.5 495L246.5 600L304.3 600Z" fill="#ececec" stroke="#ececec"></path><path d="M197.6 515L208.5 534L229.5 495Z" fill="#fafafa" stroke="#fafafa"></path><path d="M900 64L900 0L818.2 42Z" fill="#d5d5d5" stroke="#d5d5d5"></path><path d="M83.8 339L118.8 415L195.6 328Z" fill="#f5f5f5" stroke="#f5f5f5"></path><path d="M105.8 524L206.6 600L208.5 534Z" fill="#ffffff" stroke="#ffffff"></path><path d="M143.6 0L131.6 35L283.5 31Z" fill="#dedede" stroke="#dedede"></path><path d="M148.6 163L78.8 210L134.6 247Z" fill="#e2e2e2" stroke="#e2e2e2"></path><path d="M134.6 247L83.8 339L195.6 328Z" fill="#ffffff" stroke="#ffffff"></path><path d="M49.8 117L78.8 210L148.6 163Z" fill="#d5d5d5" stroke="#d5d5d5"></path><path d="M206.6 600L246.5 600L208.5 534Z" fill="#dedede" stroke="#dedede"></path><path d="M208.5 534L246.5 600L229.5 495Z" fill="#fafafa" stroke="#fafafa"></path><path d="M282.5 0L143.6 0L283.5 31Z" fill="#e2e2e2" stroke="#e2e2e2"></path><path d="M78.8 210L83.8 339L134.6 247Z" fill="#d9d9d9" stroke="#d9d9d9"></path><path d="M900 600L900 534L819.2 552Z" fill="#d9d9d9" stroke="#d9d9d9"></path><path d="M819.2 552L900 534L835.2 414Z" fill="#d0d0d0" stroke="#d0d0d0"></path><path d="M75.8 392L117.6 481L118.8 415Z" fill="#e7e7e7" stroke="#e7e7e7"></path><path d="M118.8 415L117.6 481L229.5 495Z" fill="#f1f1f1" stroke="#f1f1f1"></path><path d="M0 372L75.8 392L83.8 339Z" fill="#ffffff" stroke="#ffffff"></path><path d="M83.8 339L75.8 392L118.8 415Z" fill="#dedede" stroke="#dedede"></path><path d="M105.8 524L208.5 534L197.6 515Z" fill="#d0d0d0" stroke="#d0d0d0"></path><path d="M131.6 35L78.8 50L148.6 163Z" fill="#dedede" stroke="#dedede"></path><path d="M78.8 210L0 263L83.8 339Z" fill="#f5f5f5" stroke="#f5f5f5"></path><path d="M84.8 0L78.8 50L131.6 35Z" fill="#dedede" stroke="#dedede"></path><path d="M78.8 50L49.8 117L148.6 163Z" fill="#e2e2e2" stroke="#e2e2e2"></path><path d="M777.2 600L900 600L819.2 552Z" fill="#ececec" stroke="#ececec"></path><path d="M143.6 0L84.8 0L131.6 35Z" fill="#dedede" stroke="#dedede"></path><path d="M0 69L0 114L49.8 117Z" fill="#e2e2e2" stroke="#e2e2e2"></path><path d="M117.6 481L105.8 524L197.6 515Z" fill="#e2e2e2" stroke="#e2e2e2"></path><path d="M0 511L105.8 524L117.6 481Z" fill="#fafafa" stroke="#fafafa"></path><path d="M0 194L0 263L78.8 210Z" fill="#ececec" stroke="#ececec"></path><path d="M75.8 392L0 419L117.6 481Z" fill="#dedede" stroke="#dedede"></path><path d="M0 194L78.8 210L49.8 117Z" fill="#ececec" stroke="#ececec"></path><path d="M0 114L0 194L49.8 117Z" fill="#f1f1f1" stroke="#f1f1f1"></path><path d="M0 69L49.8 117L78.8 50Z" fill="#fafafa" stroke="#fafafa"></path><path d="M0 263L0 372L83.8 339Z" fill="#d5d5d5" stroke="#d5d5d5"></path><path d="M0 0L0 69L78.8 50Z" fill="#e7e7e7" stroke="#e7e7e7"></path><path d="M0 372L0 419L75.8 392Z" fill="#e2e2e2" stroke="#e2e2e2"></path><path d="M84.8 0L0 0L78.8 50Z" fill="#ececec" stroke="#ececec"></path><path d="M0 419L0 511L117.6 481Z" fill="#d0d0d0" stroke="#d0d0d0"></path><path d="M105.8 524L37.8 600L206.6 600Z" fill="#f5f5f5" stroke="#f5f5f5"></path><path d="M0 511L37.8 600L105.8 524Z" fill="#d5d5d5" stroke="#d5d5d5"></path><path d="M0 511L0 600L37.8 600Z" fill="#dedede" stroke="#dedede"></path></g></svg>